<?xml version="1.0" encoding="UTF-8"?>
<svg xmlns="http://www.w3.org/2000/svg" xmlns:xlink="http://www.w3.org/1999/xlink" width="149pt" height="133pt" viewBox="0 0 149 133" version="1.1">
<g id="surface1">
<path style=" stroke:none;fill-rule:nonzero;fill:rgb(0%,0%,0%);fill-opacity:1;" d="M 72.527344 38.511719 L 24.832031 77.957031 L 24.832031 120.53125 C 24.832031 122.828125 26.6875 124.6875 28.972656 124.6875 L 57.960938 124.613281 C 60.238281 124.601562 62.078125 122.742188 62.078125 120.457031 L 62.078125 95.59375 C 62.078125 93.296875 63.929688 91.4375 66.21875 91.4375 L 82.773438 91.4375 C 85.058594 91.4375 86.910156 93.296875 86.910156 95.59375 L 86.910156 120.4375 C 86.90625 121.542969 87.34375 122.601562 88.121094 123.386719 C 88.894531 124.167969 89.949219 124.605469 91.050781 124.605469 L 120.027344 124.6875 C 122.3125 124.6875 124.167969 122.828125 124.167969 120.53125 L 124.167969 77.929688 L 76.484375 38.511719 C 75.328125 37.578125 73.679688 37.578125 72.527344 38.511719 Z M 147.863281 65.324219 L 126.234375 47.421875 L 126.234375 11.441406 C 126.234375 9.722656 124.847656 8.324219 123.132812 8.324219 L 108.644531 8.324219 C 106.929688 8.324219 105.542969 9.722656 105.542969 11.441406 L 105.542969 30.304688 L 82.382812 11.171875 C 77.796875 7.382812 71.1875 7.382812 66.601562 11.171875 L 1.121094 65.324219 C -0.199219 66.421875 -0.382812 68.386719 0.707031 69.714844 L 7.304688 77.765625 C 7.828125 78.40625 8.585938 78.808594 9.40625 78.890625 C 10.226562 78.96875 11.042969 78.714844 11.679688 78.1875 L 72.527344 27.863281 C 73.679688 26.925781 75.328125 26.925781 76.484375 27.863281 L 137.332031 78.1875 C 138.65625 79.289062 140.613281 79.101562 141.707031 77.773438 L 148.300781 69.722656 C 148.824219 69.082031 149.074219 68.253906 148.992188 67.429688 C 148.910156 66.605469 148.503906 65.847656 147.863281 65.324219 Z M 147.863281 65.324219 "/>
</g>
</svg>
