<?xml version="1.0" encoding="UTF-8"?>
<svg xmlns="http://www.w3.org/2000/svg" xmlns:xlink="http://www.w3.org/1999/xlink" width="150pt" height="120pt" viewBox="0 0 150 120" version="1.1">
<g id="surface1">
<path style=" stroke:none;fill-rule:nonzero;fill:rgb(0%,0%,0%);fill-opacity:1;" d="M 127.5 45 L 123.75 45 L 98.253906 13.128906 C 95.40625 9.570312 91.097656 7.5 86.539062 7.5 L 36.40625 7.5 C 30.273438 7.5 24.757812 11.234375 22.480469 16.929688 L 11.25 45.53125 C 4.789062 47.203125 0 53.019531 0 60 L 0 86.25 C 0 88.320312 1.679688 90 3.75 90 L 15 90 C 15 102.425781 25.074219 112.5 37.5 112.5 C 49.925781 112.5 60 102.425781 60 90 L 90 90 C 90 102.425781 100.074219 112.5 112.5 112.5 C 124.925781 112.5 135 102.425781 135 90 L 146.25 90 C 148.320312 90 150 88.320312 150 86.25 L 150 67.5 C 150 55.074219 139.925781 45 127.5 45 Z M 37.5 101.25 C 31.296875 101.25 26.25 96.203125 26.25 90 C 26.25 83.796875 31.296875 78.75 37.5 78.75 C 43.703125 78.75 48.75 83.796875 48.75 90 C 48.75 96.203125 43.703125 101.25 37.5 101.25 Z M 54.375 45 L 27.40625 45 L 36.40625 22.5 L 54.375 22.5 Z M 65.625 45 L 65.625 22.5 L 86.539062 22.5 L 104.539062 45 Z M 112.5 101.25 C 106.296875 101.25 101.25 96.203125 101.25 90 C 101.25 83.796875 106.296875 78.75 112.5 78.75 C 118.703125 78.75 123.75 83.796875 123.75 90 C 123.75 96.203125 118.703125 101.25 112.5 101.25 Z M 112.5 101.25 "/>
</g>
</svg>
