<?xml version="1.0" encoding="UTF-8"?>
<svg xmlns="http://www.w3.org/2000/svg" xmlns:xlink="http://www.w3.org/1999/xlink" width="13pt" height="13pt" viewBox="0 0 13 13" version="1.1">
<g id="surface1">
<path style=" stroke:none;fill-rule:nonzero;fill:rgb(0%,0%,0%);fill-opacity:1;" d="M 12.957031 11.320312 L 11.101562 3.902344 C 11.003906 3.519531 10.683594 3.25 10.316406 3.25 L 8.789062 3.25 C 8.878906 2.996094 8.9375 2.722656 8.9375 2.4375 C 8.9375 1.089844 7.847656 0 6.5 0 C 5.152344 0 4.0625 1.089844 4.0625 2.4375 C 4.0625 2.722656 4.121094 2.996094 4.210938 3.25 L 2.683594 3.25 C 2.316406 3.25 1.996094 3.519531 1.898438 3.902344 L 0.0429688 11.320312 C -0.167969 12.167969 0.414062 13 1.21875 13 L 11.78125 13 C 12.585938 13 13.167969 12.167969 12.957031 11.320312 Z M 6.5 3.25 C 6.050781 3.25 5.6875 2.886719 5.6875 2.4375 C 5.6875 1.988281 6.050781 1.625 6.5 1.625 C 6.949219 1.625 7.3125 1.988281 7.3125 2.4375 C 7.3125 2.886719 6.949219 3.25 6.5 3.25 Z M 6.5 3.25 "/>
</g>
</svg>
