<?xml version="1.0" encoding="iso-8859-1"?>
<!-- Generator: Adobe Illustrator 19.0.0, SVG Export Plug-In . SVG Version: 6.00 Build 0)  -->
<svg version="1.1" id="Layer_1" xmlns="http://www.w3.org/2000/svg" xmlns:xlink="http://www.w3.org/1999/xlink" x="0px" y="0px"
	 viewBox="0 0 512 512" style="enable-background:new 0 0 512 512;" xml:space="preserve">
<path style="fill:#FF9F19;" d="M512,460.906v2.658c0,18.581-15.112,33.692-33.692,33.692H33.692C15.112,497.256,0,482.145,0,463.564
	v-2.596l86.14-305.004c1.56-17.146,16.01-30.61,33.555-30.61h270.363c17.52,0,31.945,13.427,33.555,30.523L512,460.906z"/>
<path style="fill:#F28618;" d="M512,460.906v2.658c0,18.581-15.112,33.692-33.692,33.692h-221.06V125.355h132.811
	c17.52,0,31.945,13.427,33.555,30.523L512,460.906z"/>
<g>
	<path style="fill:#806749;" d="M257.244,14.744c-40.923,0-74.216,33.293-74.216,74.216s33.293,74.217,74.216,74.217
		s74.216-33.294,74.216-74.217S298.167,14.744,257.244,14.744z"/>
	<path style="fill:#806749;" d="M150.528,244.411c0-5.98,6.833-8.542,13.881-8.542c6.833,0,13.88,2.562,13.88,8.542v58.298
		l46.125-62.783c2.135-2.99,4.698-4.057,7.688-4.057c7.047,0,16.015,7.26,16.015,14.307c0,1.495-0.213,3.417-1.708,5.338
		l-38.225,47.834l46.553,70.896c1.067,1.494,1.495,3.202,1.495,4.912c0,6.833-8.542,13.88-16.657,13.88
		c-3.63,0-7.26-1.494-9.61-5.338l-40.146-60.86l-11.532,14.52v41.855c0,5.766-7.047,8.756-13.88,8.756
		c-7.047,0-13.881-2.99-13.881-8.756V244.411H150.528z"/>
</g>
<g>
	<path style="fill:#6A563D;" d="M313.889,260.213c-14.308,0-22.423,7.901-22.423,24.558v59.579c0,16.657,8.115,24.558,22.208,24.558
		c13.881,0,22.422-7.901,22.422-24.558v-12.6h-17.297c-5.552,0-8.542-5.338-8.542-10.891c0-5.338,2.99-10.891,8.542-10.891h36.303
		c5.552,0,8.755,4.271,8.755,8.97v25.412c0,35.662-21.995,48.901-50.183,48.901c-28.188,0-49.97-13.239-49.97-48.901V284.77
		c0-35.662,21.995-48.901,49.115-48.901c29.47,0,51.036,15.375,51.036,41c0,10.677-4.698,13.239-13.88,13.239
		c-7.475,0-13.667-2.135-13.881-8.755C335.455,271.319,332.039,260.213,313.889,260.213z"/>
	<path style="fill:#6A563D;" d="M257.244,14.744v148.431c40.923,0,74.216-33.294,74.216-74.217S298.167,14.744,257.244,14.744z"/>
</g>
<g>
</g>
<g>
</g>
<g>
</g>
<g>
</g>
<g>
</g>
<g>
</g>
<g>
</g>
<g>
</g>
<g>
</g>
<g>
</g>
<g>
</g>
<g>
</g>
<g>
</g>
<g>
</g>
<g>
</g>
</svg>
